<?xml version="1.0" standalone="no"?>
<!DOCTYPE svg PUBLIC "-//W3C//DTD SVG 20010904//EN"
 "http://www.w3.org/TR/2001/REC-SVG-20010904/DTD/svg10.dtd">
<svg version="1.0" xmlns="http://www.w3.org/2000/svg"
 width="611.000000pt" height="170.000000pt" viewBox="0 0 611.000000 170.000000"
 preserveAspectRatio="xMidYMid meet">
<metadata>
Created by potrace 1.16, written by Peter Selinger 2001-2019
</metadata>
<g transform="translate(0.000000,170.000000) scale(0.100000,-0.100000)"
fill="#000000" stroke="none">
<path d="M204 1404 c4 -10 39 -100 78 -199 39 -99 104 -265 145 -370 119 -303
165 -415 172 -415 13 0 109 136 176 250 37 63 83 140 101 172 19 31 34 60 34
66 0 11 -73 160 -101 206 l-18 29 -55 -117 c-31 -65 -56 -122 -56 -128 0 -6
24 -8 58 -6 31 1 58 0 59 -4 5 -14 -169 -270 -177 -262 -4 5 -17 34 -28 64
-11 30 -55 134 -98 230 -42 96 -91 209 -109 251 -57 131 -83 176 -122 206 -58
45 -68 50 -59 27z"/>
<path d="M1335 1382 c-27 -21 -55 -49 -62 -62 -25 -48 -74 -156 -115 -250 -55
-128 -129 -300 -164 -382 -16 -38 -32 -68 -35 -68 -4 0 -23 25 -42 55 -34 55
-35 55 -49 33 -8 -13 -23 -38 -32 -56 l-17 -32 46 -57 c71 -87 125 -146 129
-142 2 2 35 85 74 184 40 99 128 321 197 494 68 173 123 316 122 317 -2 2 -25
-14 -52 -34z"/>
<path d="M2970 955 l0 -355 40 0 c39 0 40 1 40 35 0 42 8 44 40 10 33 -35 118
-59 180 -50 66 9 132 53 166 111 39 67 46 178 14 252 -24 56 -74 106 -126 128
-73 30 -185 9 -242 -45 -18 -18 -23 -19 -28 -8 -3 8 -5 21 -3 28 1 8 1 67 0
132 l-1 117 -40 0 -40 0 0 -355z m326 56 c60 -27 88 -78 88 -160 1 -49 -4 -75
-19 -100 -64 -109 -201 -112 -279 -7 -17 22 -21 42 -21 104 0 65 4 82 24 111
27 37 91 71 136 71 17 0 48 -9 71 -19z"/>
<path d="M5190 1170 l0 -140 -43 31 c-51 35 -136 48 -202 30 -127 -34 -194
-185 -150 -337 43 -150 228 -212 351 -118 24 19 46 34 49 34 3 0 5 -16 5 -35
0 -33 2 -35 35 -35 l35 0 0 355 0 355 -40 0 -40 0 0 -140z m-70 -168 c95 -70
91 -245 -7 -312 -40 -27 -113 -31 -159 -7 -130 67 -123 283 11 332 49 18 120
12 155 -13z"/>
<path d="M370 1296 c0 -3 64 -121 201 -370 l38 -69 27 55 27 56 -57 98 c-32
55 -72 110 -89 124 -52 42 -147 110 -147 106z"/>
<path d="M1164 1262 c-101 -68 -128 -99 -203 -237 l-33 -60 25 -53 25 -53 71
125 c108 192 164 297 159 301 -2 2 -22 -8 -44 -23z"/>
<path d="M1530 1285 c0 -2 13 -51 29 -107 16 -57 48 -173 71 -258 23 -85 52
-191 65 -235 l22 -80 46 -3 46 -3 11 43 c6 24 22 77 35 118 13 41 42 140 65
220 52 183 49 174 58 166 3 -4 16 -42 28 -84 12 -42 43 -149 69 -237 26 -88
51 -175 57 -192 8 -31 12 -33 53 -33 l44 0 20 68 c51 174 171 608 171 617 0 3
-18 5 -40 5 l-39 0 -17 -57 c-10 -32 -43 -158 -74 -281 -32 -122 -60 -225 -63
-228 -3 -3 -11 14 -17 37 -16 61 -87 315 -120 429 l-28 95 -44 3 -45 3 -30
-103 c-17 -57 -52 -179 -78 -273 -59 -215 -55 -205 -66 -180 -8 18 -139 536
-139 549 0 3 -20 6 -45 6 -25 0 -45 -2 -45 -5z"/>
<path d="M4036 1194 c-3 -9 -6 -36 -6 -60 l0 -44 -45 0 c-45 0 -45 0 -45 -35
0 -35 0 -35 45 -35 l45 0 0 -155 c0 -222 17 -254 140 -263 l70 -5 0 37 c0 21
-5 36 -12 37 -7 1 -28 2 -46 4 -18 1 -42 11 -52 20 -18 17 -20 32 -20 172 l0
153 65 0 65 0 0 35 0 35 -65 0 -65 0 0 60 0 60 -34 0 c-22 0 -36 -6 -40 -16z"/>
<path d="M2606 1090 c-98 -30 -154 -118 -155 -245 -1 -130 68 -223 182 -246
61 -13 140 -1 182 27 24 15 85 99 85 116 0 4 -16 8 -35 8 -29 0 -43 -8 -73
-39 -47 -50 -94 -60 -158 -36 -52 20 -92 68 -101 119 l-6 36 192 0 191 0 0 43
c0 95 -45 168 -125 206 -47 22 -125 27 -179 11z m170 -91 c25 -23 54 -76 54
-99 0 -6 -54 -10 -151 -10 l-151 0 7 27 c10 40 44 83 79 99 47 22 130 13 162
-17z"/>
<path d="M3635 1089 c-93 -27 -130 -162 -60 -217 22 -18 119 -52 188 -67 34
-7 67 -39 67 -64 0 -11 -10 -32 -23 -46 -45 -53 -159 -39 -195 25 -15 26 -23
30 -60 30 l-42 0 15 -37 c24 -59 74 -99 139 -113 137 -28 246 38 246 151 0 69
-55 111 -185 143 -80 20 -105 38 -105 76 0 36 20 51 73 57 57 6 96 -10 110
-47 10 -26 16 -30 49 -30 33 0 38 3 38 23 0 38 -38 87 -83 107 -44 21 -120 25
-172 9z"/>
<path d="M4473 1081 c-23 -11 -49 -31 -58 -45 -22 -32 -35 -25 -35 20 0 32 -2
34 -35 34 l-35 0 0 -245 0 -245 40 0 40 0 0 148 c0 123 4 154 19 189 23 49 62
73 121 73 l40 0 0 45 c0 42 -2 45 -27 45 -16 0 -47 -9 -70 -19z"/>
<path d="M5472 1074 c-87 -43 -125 -114 -125 -234 0 -38 7 -81 17 -105 48
-115 178 -171 297 -130 52 19 94 56 120 108 l19 37 -43 0 c-36 0 -45 -4 -60
-29 -51 -86 -199 -73 -248 21 -10 21 -19 49 -19 63 l0 25 191 0 192 0 -7 58
c-16 136 -96 212 -225 212 -41 0 -71 -7 -109 -26z m172 -58 c42 -18 76 -61 76
-97 l0 -29 -145 0 c-134 0 -145 1 -145 19 0 29 43 85 80 103 42 22 89 23 134
4z"/>
<path d="M4620 845 l0 -245 40 0 40 0 0 245 0 245 -40 0 -40 0 0 -245z"/>
</g>
</svg>
