<?xml version="1.0" encoding="UTF-8"?>
<svg version="1.1" xmlns="http://www.w3.org/2000/svg" width="859" height="211">
<path d="M0 0 C1.79133978 -0.05391993 3.58313899 -0.09275571 5.375 -0.125 C6.37273437 -0.14820313 7.37046875 -0.17140625 8.3984375 -0.1953125 C11 0 11 0 13 2 C13.66915894 3.96183777 13.66915894 3.96183777 14.26513672 6.39526367 C14.49232391 7.30769333 14.71951111 8.22012299 14.95358276 9.16020203 C15.19319733 10.15276505 15.43281189 11.14532806 15.6796875 12.16796875 C16.06074142 13.70847649 16.06074142 13.70847649 16.44949341 15.28010559 C17.26464351 18.58097478 18.07013954 21.88410829 18.875 25.1875 C19.93250882 29.49407816 20.99349593 33.79979677 22.0546875 38.10546875 C22.3097406 39.14218719 22.5647937 40.17890564 22.82757568 41.24703979 C25.52125465 54.44071426 25.52125465 54.44071426 30 67 C30.25579834 66.1020874 30.51159668 65.2041748 30.77514648 64.27905273 C33.61105729 54.32841091 36.45370486 44.37971135 39.30310059 34.43292236 C39.76134673 32.83315449 40.21944034 31.23334291 40.67736816 29.63348389 C41.93852347 25.22802591 43.20308664 20.82357611 44.47317505 16.42068481 C44.86598659 15.05714402 45.25764989 13.69327192 45.64816284 12.32907104 C46.19072806 10.43463616 46.73782063 8.54149964 47.28515625 6.6484375 C47.59332275 5.57770996 47.90148926 4.50698242 48.21899414 3.40380859 C49 1 49 1 50 0 C52.01964199 -0.07244053 54.04167124 -0.08377188 56.0625 -0.0625 C57.71958984 -0.04896484 57.71958984 -0.04896484 59.41015625 -0.03515625 C60.26480469 -0.02355469 61.11945313 -0.01195312 62 0 C64.5309821 4.66993083 66.08938137 9.22369828 67.48828125 14.30859375 C67.82428848 15.50264832 67.82428848 15.50264832 68.16708374 16.7208252 C68.888434 19.29135978 69.60074314 21.86429422 70.3125 24.4375 C70.80478883 26.20068756 71.29738425 27.96378954 71.7902832 29.72680664 C75.33665242 42.44760812 78.76167608 55.19700627 82 68 C85.33242524 56.70822699 88.20570689 45.32977329 90.99731445 33.89428711 C93.08509723 25.35816257 95.26051208 16.8626511 97.72265625 8.42578125 C97.93506454 7.69360886 98.14747284 6.96143646 98.36631775 6.20707703 C99.87507679 1.12492321 99.87507679 1.12492321 101 0 C102.85287502 -0.07226502 104.70833878 -0.0838122 106.5625 -0.0625 C107.57441406 -0.05347656 108.58632813 -0.04445312 109.62890625 -0.03515625 C110.41136719 -0.02355469 111.19382812 -0.01195312 112 0 C113.10476388 3.31429165 112.90364863 4.20930533 112.03125 7.48046875 C111.79374023 8.38369873 111.55623047 9.28692871 111.31152344 10.2175293 C111.0437207 11.19761963 110.77591797 12.17770996 110.5 13.1875 C110.22446289 14.2185083 109.94892578 15.2495166 109.66503906 16.31176758 C107.52199339 24.25899571 105.24371595 32.16481595 102.89746094 40.05419922 C100.99347452 46.4861098 99.18824939 52.93917332 97.4375 59.4140625 C96.98869722 61.06488462 96.53980375 62.71568208 96.09082031 64.36645508 C95.42118981 66.82955686 94.75508797 69.29333985 94.09997559 71.76034546 C93.48698781 74.06798977 92.86180685 76.37202927 92.234375 78.67578125 C91.96282593 79.71945358 91.96282593 79.71945358 91.68579102 80.78421021 C90.7332523 84.23705505 90.00032692 86.87792412 87 89 C84.625 89.3984375 84.625 89.3984375 82 89.375 C80.700625 89.38660156 80.700625 89.38660156 79.375 89.3984375 C76.48525861 88.91364536 75.83726876 88.23279189 74 86 C73.19140625 83.9675293 73.19140625 83.9675293 72.5625 81.57421875 C72.31250244 80.64988037 72.06250488 79.72554199 71.80493164 78.77319336 C71.5393042 77.75491455 71.27367676 76.73663574 71 75.6875 C70.39665988 73.45254927 69.7910294 71.21821608 69.18359375 68.984375 C68.84569824 67.73720703 68.50780273 66.49003906 68.15966797 65.20507812 C65.89184109 56.92180128 63.46006532 48.68390854 61.0625 40.4375 C60.56042907 38.70730957 60.0584736 36.97708563 59.55664062 35.24682617 C58.3723187 31.16419414 57.18658671 27.08197434 56 23 C52.11978764 34.90890235 48.25992311 46.81434684 44.875 58.875 C42.90945427 65.85757775 40.89081943 72.81888405 38.75 79.75 C38.50362793 80.56710449 38.25725586 81.38420898 38.00341797 82.22607422 C37.39512389 84.17034521 36.70506055 86.08869128 36 88 C33.51245214 89.24377393 31.77344699 89.13306235 29 89.125 C28.113125 89.12757813 27.22625 89.13015625 26.3125 89.1328125 C24 89 24 89 22 88 C21.18139648 85.85571289 21.18139648 85.85571289 20.37109375 82.97265625 C20.06284668 81.88742676 19.75459961 80.80219727 19.43701172 79.68408203 C19.10717285 78.48895996 18.77733398 77.29383789 18.4375 76.0625 C18.08961426 74.8235498 17.74172852 73.58459961 17.38330078 72.30810547 C14.21952683 60.99857165 11.21044947 49.64617163 8.23852539 38.28491211 C6.56068846 31.87351926 4.86841348 25.47064781 3.0625 19.09375 C2.77455566 18.07200684 2.48661133 17.05026367 2.18994141 15.99755859 C1.66407305 14.14394354 1.13045099 12.29250243 0.58740234 10.44384766 C0.36004395 9.63995605 0.13268555 8.83606445 -0.1015625 8.0078125 C-0.30088379 7.32348145 -0.50020508 6.63915039 -0.70556641 5.93408203 C-1.04708397 3.69071376 -0.68222858 2.14611502 0 0 Z " fill="#F8F8F8" transform="translate(204,52)"/>
<path d="M0 0 C10.42028716 3.90532654 15.25456366 10.15725762 19.76171875 20.015625 C20.11024902 20.79486328 20.4587793 21.57410156 20.81787109 22.37695312 C22.16500353 25.36612927 23.55902269 28.33115998 24.95703125 31.296875 C29.84131476 41.70067902 34.65614288 52.09607057 38.71875 62.8515625 C39.69578077 65.25243689 40.72568593 67.49429834 41.8984375 69.796875 C44.19824813 74.315517 46.17245372 78.94779787 48.125 83.625 C48.64513672 84.85476562 48.64513672 84.85476562 49.17578125 86.109375 C50.95968935 90.36068089 52.61772237 94.59666199 54 99 C58.67001116 93.0128062 62.78891498 86.77183182 66.8515625 80.3671875 C68.86231686 77.21578703 70.91571073 74.10285597 73 71 C72.14535156 70.93941406 71.29070312 70.87882812 70.41015625 70.81640625 C69.30542969 70.73261719 68.20070313 70.64882812 67.0625 70.5625 C65.40927734 70.44068359 65.40927734 70.44068359 63.72265625 70.31640625 C61 70 61 70 60 69 C59.50628945 63.9207657 60.74377594 60.88554407 63.125 56.4375 C63.77043385 55.21470283 64.41361061 53.99071201 65.0546875 52.765625 C65.38049805 52.14623047 65.70630859 51.52683594 66.04199219 50.88867188 C68.0996228 46.83214017 69.84646127 42.62720114 71.640625 38.44921875 C73 36 73 36 76 35 C79.90636494 41.02172501 83.24697031 47.16713226 86.375 53.625 C86.83777344 54.54023437 87.30054687 55.45546875 87.77734375 56.3984375 C88.20917969 57.29046875 88.64101562 58.1825 89.0859375 59.1015625 C89.4782959 59.89900879 89.8706543 60.69645508 90.27490234 61.51806641 C91.54006086 65.84857194 90.47250284 69.00507806 88.57641602 72.99755859 C87.97498779 74.03734863 87.37355957 75.07713867 86.75390625 76.1484375 C86.42711884 76.71855057 86.10033142 77.28866364 85.76364136 77.87605286 C84.70602501 79.71467747 83.63497804 81.54501092 82.5625 83.375 C81.82845291 84.64079741 81.09481207 85.90683049 80.36157227 87.1730957 C65.35051406 113.01753268 65.35051406 113.01753268 57 123 C56.23816406 123.92619141 56.23816406 123.92619141 55.4609375 124.87109375 C54.31661069 126.25515383 53.16002057 127.62906659 52 129 C50.16650391 128.875 50.16650391 128.875 48 128 C46.60302734 125.4375 46.60302734 125.4375 45.3359375 122 C45.10267761 121.38187439 44.86941772 120.76374878 44.62908936 120.12689209 C43.86349842 118.08960085 43.11972808 116.04499904 42.375 114 C41.84151804 112.57255428 41.30617868 111.14580143 40.76904297 109.71972656 C39.68262544 106.83394146 38.60212205 103.94605246 37.52539062 101.05664062 C35.47827242 95.58636753 33.3116633 90.16576334 31.125 84.75 C30.31245376 82.72658107 29.4999553 80.70314295 28.6875 78.6796875 C27.79171039 76.45310741 26.89587364 74.22654628 26 72 C21.61147586 61.08697475 17.24017345 50.16722913 12.89160156 39.23822021 C11.99740099 36.9934756 11.10049266 34.74982783 10.203125 32.50634766 C8.76783041 28.91503304 7.34372852 25.31946215 5.92767334 21.72052002 C5.39791206 20.37873472 4.86465573 19.03832341 4.32769775 17.69940186 C3.58642732 15.84900766 2.85930044 13.99296652 2.1328125 12.13671875 C1.71918457 11.09217529 1.30555664 10.04763184 0.87939453 8.97143555 C-0.049485 5.83279237 -0.16581894 3.25472823 0 0 Z " fill="#F5F6F5" transform="translate(37,35)"/>
<path d="M0 0 C1.20462891 -0.02126953 1.20462891 -0.02126953 2.43359375 -0.04296875 C4.5625 0.1875 4.5625 0.1875 6.5625 2.1875 C6.80751495 4.61926397 6.93574921 6.94614884 6.9765625 9.3828125 C6.99592865 10.09025604 7.0152948 10.79769958 7.0352478 11.52658081 C7.09507652 13.78843085 7.14144101 16.0503317 7.1875 18.3125 C7.22567686 19.8450744 7.26472842 21.37762728 7.3046875 22.91015625 C7.40078039 26.66909624 7.48479849 30.42813668 7.5625 34.1875 C8.14330322 33.77177734 8.72410645 33.35605469 9.32250977 32.92773438 C17.12601731 27.50396287 24.23344597 25.19391944 33.8125 26.8125 C43.14091763 29.21166172 48.82302502 33.37176334 54.5625 41.1875 C59.83027534 50.3243655 60.07710035 62.54754573 57.4375 72.5625 C54.75805518 80.24694553 49.63799068 86.39258353 42.51953125 90.3125 C34.77488641 93.95109333 26.16341535 94.78543218 17.87890625 92.421875 C13.44518621 90.5377309 9.46756702 87.99113786 5.5625 85.1875 C5.5625 87.1675 5.5625 89.1475 5.5625 91.1875 C2.34798731 92.79475635 -0.87362536 92.24498185 -4.4375 92.1875 C-6.77296213 88.50408386 -6.68517643 85.33585465 -6.68041992 81.0390625 C-6.68231827 80.32623611 -6.68421661 79.61340973 -6.68617249 78.87898254 C-6.68987475 76.52337618 -6.67917528 74.16807899 -6.66796875 71.8125 C-6.66677541 70.16544633 -6.66632411 68.51839197 -6.6665802 66.87133789 C-6.66501573 63.41467031 -6.65673533 59.95810634 -6.64331055 56.50146484 C-6.62642755 52.10167614 -6.62249335 47.70200235 -6.62325573 43.30218506 C-6.62298161 39.89608694 -6.61746025 36.49001325 -6.61025429 33.08392334 C-6.60710131 31.46384872 -6.60510822 29.84377136 -6.60436058 28.22369385 C-6.57715417 0.05261723 -6.57715417 0.05261723 0 0 Z M11.25 45.75 C6.29785701 51.79395404 6.94136455 58.67168265 7.3359375 66.18994141 C7.813374 70.39940851 9.55844837 73.29297108 12.5625 76.1875 C18.45404894 80.78290817 23.27399319 81.85561312 30.5625 81.1875 C36.89104605 79.18346042 40.801298 76.17685255 44.17578125 70.44921875 C46.77848623 64.32736337 46.63134625 57.07037083 44.87109375 50.67578125 C42.73306679 45.97927851 39.75267386 43.12953697 35.5625 40.1875 C26.45011276 37.15003759 17.62971534 38.54467444 11.25 45.75 Z " fill="#F5F5F5" transform="translate(389.4375,48.8125)"/>
<path d="M0 0 C0.89589844 0.10699219 1.79179688 0.21398438 2.71484375 0.32421875 C4.06255859 0.47310547 4.06255859 0.47310547 5.4375 0.625 C7.65234375 1.01171875 7.65234375 1.01171875 8.65234375 2.01171875 C8.74752178 4.78110841 8.7778864 7.52549034 8.76586914 10.29516602 C8.76601517 11.16337982 8.76616119 12.03159363 8.76631165 12.92611694 C8.76561221 15.81014461 8.75781838 18.69410855 8.75 21.578125 C8.74813593 23.57209742 8.74671198 25.5660703 8.74571228 27.56004333 C8.74188623 32.81917577 8.7320552 38.07828078 8.7210083 43.33740234 C8.71079605 48.6995405 8.70621506 54.06168306 8.70117188 59.42382812 C8.69043301 69.95313708 8.67335555 80.48242564 8.65234375 91.01171875 C6.4234338 92.12617373 5.12179269 92.17652161 2.65234375 92.19921875 C1.60046875 92.22048828 1.60046875 92.22048828 0.52734375 92.2421875 C-1.34765625 92.01171875 -1.34765625 92.01171875 -3.34765625 90.01171875 C-3.97265625 87.38671875 -3.97265625 87.38671875 -4.34765625 85.01171875 C-4.85554687 85.42164063 -5.3634375 85.8315625 -5.88671875 86.25390625 C-6.57507813 86.79273438 -7.2634375 87.3315625 -7.97265625 87.88671875 C-8.64554688 88.42039062 -9.3184375 88.9540625 -10.01171875 89.50390625 C-16.8689303 93.93013311 -24.46273512 93.72933517 -32.34765625 93.01171875 C-35.6717335 92.11002624 -38.41594613 90.80234409 -41.34765625 89.01171875 C-42.30091797 88.45097656 -42.30091797 88.45097656 -43.2734375 87.87890625 C-49.98817875 83.53661105 -53.79593305 77.70965664 -55.83984375 70.015625 C-57.49554872 60.22149327 -57.72014395 49.68919185 -52.34765625 41.01171875 C-46.36738431 32.66315328 -40.44657954 28.69017354 -30.47265625 26.63671875 C-19.92682539 25.14726975 -12.95822182 28.2713417 -4.34765625 34.01171875 C-4.3633667 32.5733667 -4.3633667 32.5733667 -4.37939453 31.10595703 C-4.41554953 27.55391156 -4.43854018 24.00188241 -4.45751953 20.44970703 C-4.46758743 18.91126777 -4.48124271 17.37284768 -4.49853516 15.83447266 C-4.52274942 13.62527742 -4.53413116 11.4163348 -4.54296875 9.20703125 C-4.55329132 8.51739288 -4.56361389 7.82775452 -4.57424927 7.11721802 C-4.57465103 5.41370969 -4.46956651 3.71085932 -4.34765625 2.01171875 C-2.34765625 0.01171875 -2.34765625 0.01171875 0 0 Z M-39.66015625 45.44921875 C-43.98438511 52.01564036 -44.08236068 58.32987247 -43.34765625 66.01171875 C-41.6877749 72.15427367 -37.67939626 76.63261159 -32.34765625 80.01171875 C-26.63231256 81.88635148 -20.59015733 81.89371261 -15.09765625 79.38671875 C-10.29053735 76.66715348 -7.4747411 73.31955915 -5.03515625 68.32421875 C-3.46518619 60.75981753 -3.42513396 53.77468821 -7.34765625 47.01171875 C-9.8058358 44.21926782 -9.8058358 44.21926782 -12.34765625 42.01171875 C-13.00765625 41.35171875 -13.66765625 40.69171875 -14.34765625 40.01171875 C-23.71557052 36.79214733 -32.88627113 38.30917767 -39.66015625 45.44921875 Z " fill="#F6F6F6" transform="translate(665.34765625,48.98828125)"/>
<path d="M0 0 C2.0234375 1.1171875 2.0234375 1.1171875 3.8125 2.3125 C4.38226562 2.68632813 4.95203125 3.06015625 5.5390625 3.4453125 C9.60265145 6.46798211 11.56504264 9.89785162 13.8125 14.3125 C14.35583984 15.15554687 14.35583984 15.15554687 14.91015625 16.015625 C16.26025781 19.45224715 16.06137777 22.86578981 16 26.5 C15.99935547 27.23669922 15.99871094 27.97339844 15.99804688 28.73242188 C15.95300904 34.17199096 15.95300904 34.17199096 14.8125 35.3125 C13.36960213 35.40545815 11.92220215 35.42996513 10.47631836 35.42602539 C9.09499977 35.42591209 9.09499977 35.42591209 7.68577576 35.42579651 C6.68474319 35.42063522 5.68371063 35.41547394 4.65234375 35.41015625 C3.63274063 35.4087413 2.61313751 35.40732635 1.56263733 35.40586853 C-1.70827107 35.40025097 -4.97911213 35.3876955 -8.25 35.375 C-10.46158756 35.36998726 -12.67317618 35.36542396 -14.88476562 35.36132812 C-20.31903357 35.35027584 -25.75326197 35.33352063 -31.1875 35.3125 C-30.73304036 36.73041408 -30.27375056 38.14678046 -29.8125 39.5625 C-29.55726563 40.35140625 -29.30203125 41.1403125 -29.0390625 41.953125 C-27.49719005 46.65048818 -27.49719005 46.65048818 -23.75 49.5 C-22.904375 49.768125 -22.05875 50.03625 -21.1875 50.3125 C-19.7025 50.8075 -19.7025 50.8075 -18.1875 51.3125 C-12.21860719 51.84672104 -7.25156302 51.84556722 -2.1875 48.3125 C-1.424375 47.28125 -0.66125 46.25 0.125 45.1875 C3.40835796 41.67507056 5.20476749 41.52544381 9.82421875 41.22265625 C11.8125 41.3125 11.8125 41.3125 13.8125 42.3125 C13.54186367 48.80777185 11.22963833 52.59824474 6.8125 57.3125 C-0.32426239 63.64917692 -7.38643356 64.7146221 -16.7734375 64.56640625 C-24.97945209 63.95611912 -31.69951133 60.16533294 -37.3125 54.1875 C-45.05873492 44.44355187 -45.51387648 33.31690521 -44.1875 21.3125 C-43.34202175 17.86276788 -42.15312088 15.25126433 -40.1875 12.3125 C-39.82527344 11.6834375 -39.46304688 11.054375 -39.08984375 10.40625 C-31.31432813 -2.03457499 -13.10684705 -5.53400209 0 0 Z M-28.6875 15.6875 C-30.60764337 18.69568435 -30.60764337 18.69568435 -31.1875 24.3125 C-19.6375 24.3125 -8.0875 24.3125 3.8125 24.3125 C2.02541884 17.33707365 2.02541884 17.33707365 -2.1875 12.3125 C-11.37848747 7.32653948 -21.07692366 8.45745247 -28.6875 15.6875 Z " fill="#EFEFEF" transform="translate(724.1875,77.6875)"/>
<path d="M0 0 C6.15200759 7.12337721 8.51954025 12.50932747 8.5 21.9375 C8.50386719 23.81501953 8.50386719 23.81501953 8.5078125 25.73046875 C8.375 28.75 8.375 28.75 7.375 29.75 C5.90145652 29.84304018 4.42349409 29.86746265 2.94702148 29.86352539 C2.00612167 29.86344986 1.06522186 29.86337433 0.09580994 29.86329651 C-0.92709641 29.85813522 -1.95000275 29.85297394 -3.00390625 29.84765625 C-4.04570541 29.8462413 -5.08750458 29.84482635 -6.16087341 29.84336853 C-9.50311094 29.8377508 -12.84528257 29.8251953 -16.1875 29.8125 C-18.44726466 29.80748728 -20.70703037 29.80292398 -22.96679688 29.79882812 C-28.51955391 29.78777561 -34.07227225 29.77102024 -39.625 29.75 C-39.01678017 31.19150364 -38.40065276 32.62967234 -37.78125 34.06640625 C-37.43900391 34.86763916 -37.09675781 35.66887207 -36.74414062 36.49438477 C-34.5248103 40.96741985 -31.19371687 43.88321246 -26.625 45.75 C-20.51061432 46.46118988 -14.73950016 46.49231719 -9.625 42.75 C-9.08875 41.698125 -8.5525 40.64625 -8 39.5625 C-5.625 36.75 -5.625 36.75 -2.7109375 36.36328125 C0.33842816 36.37399331 3.33713345 36.49206793 6.375 36.75 C6.22789322 43.66401888 3.23665994 47.9423585 -1.625 52.75 C-10.24079021 58.76964151 -18.35156111 59.48909632 -28.625 58.75 C-36.21237397 56.9325338 -42.83652688 51.84621858 -47.19921875 45.4375 C-52.85006777 35.59304097 -53.33613975 23.5152266 -50.90625 12.48828125 C-47.30448732 3.00460773 -41.00523287 -2.05988356 -32.125 -6.5 C-20.54244139 -9.97476758 -9.16921779 -7.85932953 0 0 Z M-36.0625 9.5625 C-38.20716088 12.3065458 -38.20716088 12.3065458 -39.625 18.75 C-27.745 18.75 -15.865 18.75 -3.625 18.75 C-5.60725882 11.447004 -5.60725882 11.447004 -10.625 6.75 C-19.96125724 1.73608407 -27.83158979 3.44207959 -36.0625 9.5625 Z " fill="#EFEFEF" transform="translate(369.625,83.25)"/>
<path d="M0 0 C-0.51117595 6.90087531 -3.11870596 12.77918801 -5.75 19.125 C-6.6646536 21.36824866 -7.57872259 23.61173578 -8.4921875 25.85546875 C-8.92885742 26.92200684 -9.36552734 27.98854492 -9.81542969 29.08740234 C-11.56424109 33.38734465 -13.22383749 37.71730297 -14.8671875 42.05859375 C-17.65277977 49.29152816 -20.59597139 56.45488542 -23.60205078 63.59863281 C-27.41923342 72.67377589 -31.10947834 81.76298493 -34.50390625 91.00390625 C-36.58633988 96.63090775 -38.84624719 102.18861055 -41.10107422 107.74829102 C-42.62704206 111.5197798 -44.12639638 115.28799047 -45.48046875 119.125 C-46.10888672 120.8884375 -46.10888672 120.8884375 -46.75 122.6875 C-47.09546875 123.70199219 -47.4409375 124.71648437 -47.796875 125.76171875 C-49 128 -49 128 -51.140625 128.83203125 C-51.75421875 128.88746094 -52.3678125 128.94289062 -53 129 C-53.33 128.01 -53.66 127.02 -54 126 C-54.66 126 -55.32 126 -56 126 C-57.49877503 124.34516392 -58.92488473 122.62409488 -60.3125 120.875 C-61.11171875 119.87339844 -61.9109375 118.87179688 -62.734375 117.83984375 C-63.48203125 116.90269531 -64.2296875 115.96554688 -65 115 C-66.0164283 113.80872738 -67.03611371 112.62020374 -68.0625 111.4375 C-70 109 -70 109 -70 107 C-70.66 107 -71.32 107 -72 107 C-74 104 -74 104 -73.81640625 101.67578125 C-72.87110269 98.57753753 -71.53292088 96.00494538 -69.9375 93.1875 C-69.38964844 92.21167969 -68.84179688 91.23585938 -68.27734375 90.23046875 C-67.64505859 89.12638672 -67.64505859 89.12638672 -67 88 C-65.68 88 -64.36 88 -63 88 C-61.296875 89.8984375 -61.296875 89.8984375 -59.75 92.375 C-59.22921875 93.18710938 -58.7084375 93.99921875 -58.171875 94.8359375 C-57 97 -57 97 -57 99 C-56.01 99 -55.02 99 -54 99 C-53.88140625 98.30003906 -53.7628125 97.60007812 -53.640625 96.87890625 C-52.94337707 93.74554206 -51.92032585 90.92627519 -50.75 87.9375 C-50.35296875 86.91527344 -49.9559375 85.89304687 -49.546875 84.83984375 C-45.78722649 75.43811162 -41.77442663 66.17877632 -37.5 57 C-36.99025635 55.90147705 -36.4805127 54.8029541 -35.95532227 53.67114258 C-34.87094163 51.33457814 -33.78571748 48.99840502 -32.69970703 46.66259766 C-31.23680599 43.51356929 -29.78194227 40.36089205 -28.32955933 37.20700073 C-27.15267626 34.65180277 -25.973469 32.09768106 -24.79394531 29.54370117 C-23.95340159 27.72196402 -23.11534838 25.89907841 -22.27734375 24.07617188 C-21.50390625 22.40458008 -21.50390625 22.40458008 -20.71484375 20.69921875 C-20.26230225 19.71783936 -19.80976074 18.73645996 -19.34350586 17.7253418 C-17.09992803 13.1741771 -14.96122003 9.65261875 -11.0625 6.375 C-10.05896484 5.52035156 -10.05896484 5.52035156 -9.03515625 4.6484375 C-8.02775391 3.83246094 -8.02775391 3.83246094 -7 3 C-6.31808594 2.43539062 -5.63617188 1.87078125 -4.93359375 1.2890625 C-3 0 -3 0 0 0 Z " fill="#F6F6F5" transform="translate(188,35)"/>
<path d="M0 0 C5.59603498 3.54085399 9.256452 7.83068416 10.8125 14.3125 C11.24609375 16.6171875 11.24609375 16.6171875 11.375 18.4375 C9.73065051 20.08184949 7.88789998 19.80360059 5.625 19.9375 C0.89593543 19.92404605 0.89593543 19.92404605 -1.22265625 17.9453125 C-2.03130599 16.69203541 -2.81046861 15.41922661 -3.55859375 14.12890625 C-4.58667016 12.21866498 -4.58667016 12.21866498 -7 11 C-12.00220688 9.92809853 -16.67870487 10.23839815 -21.625 11.4375 C-22.76683529 15.3951881 -22.76683529 15.3951881 -21.625 19.125 C-16.90215284 22.22436845 -12.13723043 23.60202004 -6.6875 24.875 C1.64111463 26.89468905 7.43458635 29.25144378 12.375 36.4375 C14.4895627 41.31726007 13.77123692 47.02590597 12.375 52 C9.29086205 57.30086211 5.26631173 61.22540413 -0.4296875 63.61328125 C-8.56939762 65.71288863 -18.09907729 65.80810407 -25.62890625 61.765625 C-31.89219141 57.59827284 -36.44735084 53.78706593 -38.625 46.4375 C-38.8125 43.5 -38.8125 43.5 -38.625 41.4375 C-35.14942037 39.69971019 -31.40561566 39.70555132 -27.625 40.4375 C-23.625 44.92530488 -23.625 44.92530488 -23.625 48.4375 C-19.358279 50.64442466 -16.00514858 51.59231582 -11.1875 51.625 C-9.76630859 51.64626953 -9.76630859 51.64626953 -8.31640625 51.66796875 C-5.52064165 51.42856365 -3.91369246 51.05058301 -1.625 49.4375 C-0.62417465 46.01506686 -0.62417465 46.01506686 -0.625 42.4375 C-2.82558319 39.13662521 -3.08942796 39.01754058 -6.6953125 38.19140625 C-7.51 37.99353516 -8.3246875 37.79566406 -9.1640625 37.59179688 C-10.01742188 37.39650391 -10.87078125 37.20121094 -11.75 37 C-20.68522691 34.93962547 -28.50631609 32.66867189 -34.625 25.4375 C-36.32368838 20.34143486 -36.63653119 14.44460632 -34.90625 9.30078125 C-32.31434743 4.48276881 -28.99075389 1.39556115 -23.953125 -0.64453125 C-16.82591992 -2.61036833 -6.85382256 -3.09484623 0 0 Z " fill="#EFEFEF" transform="translate(489.625,77.5625)"/>
<path d="M0 0 C1.875 -0.36328125 1.875 -0.36328125 4 -0.3125 C4.70125 -0.30863281 5.4025 -0.30476563 6.125 -0.30078125 C8 0 8 0 10 2 C10.1953125 5.0390625 10.1953125 5.0390625 10.125 8.625 C10.10695313 9.81351563 10.08890625 11.00203125 10.0703125 12.2265625 C10.04710937 13.14179687 10.02390625 14.05703125 10 15 C11.13179687 14.97679688 12.26359375 14.95359375 13.4296875 14.9296875 C14.91145175 14.91093099 16.39322312 14.89273066 17.875 14.875 C18.62136719 14.85824219 19.36773438 14.84148437 20.13671875 14.82421875 C22.09194461 14.8066041 24.04742021 14.89679811 26 15 C28 17 28 17 28.23046875 18.875 C28.21628906 19.57625 28.20210937 20.2775 28.1875 21 C28.18105469 21.70125 28.17460938 22.4025 28.16796875 23.125 C28 25 28 25 27 27 C21.39 27 15.78 27 10 27 C10.495 45.315 10.495 45.315 11 64 C14.7688342 65.8844171 16.68012475 66.33429462 20.75 66.625 C23.34875 66.810625 23.34875 66.810625 26 67 C26 70.63 26 74.26 26 78 C21.33736369 80.33131815 14.73889327 79.33339322 9.75 78.3125 C5.44695469 76.80643414 3.1140975 75.33136012 0 72 C-2.65742108 66.16051676 -3.42126742 61.48894792 -3.29296875 55.125 C-3.28872391 54.31506592 -3.28447906 53.50513184 -3.28010559 52.6706543 C-3.26346944 50.11341439 -3.22584772 47.55699696 -3.1875 45 C-3.1724336 43.25391773 -3.15874864 41.50782295 -3.14648438 39.76171875 C-3.11361566 35.50750125 -3.0619406 31.2538895 -3 27 C-3.63808594 27.01160156 -4.27617188 27.02320312 -4.93359375 27.03515625 C-6.17302734 27.04869141 -6.17302734 27.04869141 -7.4375 27.0625 C-8.67306641 27.07990234 -8.67306641 27.07990234 -9.93359375 27.09765625 C-12 27 -12 27 -13 26 C-13.09823937 24.33570949 -13.12973631 22.66718069 -13.125 21 C-13.12757813 20.0925 -13.13015625 19.185 -13.1328125 18.25 C-13 16 -13 16 -12 15 C-10.48071962 14.92820036 -8.95832518 14.91607993 -7.4375 14.9375 C-6.61121094 14.94652344 -5.78492188 14.95554687 -4.93359375 14.96484375 C-4.29550781 14.97644531 -3.65742187 14.98804687 -3 15 C-2.95101562 14.16855469 -2.90203125 13.33710937 -2.8515625 12.48046875 C-2.77679687 11.39378906 -2.70203125 10.30710937 -2.625 9.1875 C-2.55539062 8.10855469 -2.48578125 7.02960938 -2.4140625 5.91796875 C-2 3 -2 3 0 0 Z " fill="#F5F5F5" transform="translate(518,62)"/>
<path d="M0 0 C0 4.29 0 8.58 0 13 C-1.711875 13.268125 -3.42375 13.53625 -5.1875 13.8125 C-9.41065994 14.56702343 -12.45906111 15.48707563 -16 18 C-16.66 18 -17.32 18 -18 18 C-21.90091507 26.91489124 -21.49027863 35.88083118 -21.5625 45.4375 C-21.58630485 47.9245053 -21.61434085 50.41116375 -21.65428162 52.89796448 C-21.67861447 54.43701518 -21.69349274 55.97625091 -21.69789124 57.51548767 C-21.7753703 62.7753703 -21.7753703 62.7753703 -24 65 C-31.30434783 65.46376812 -31.30434783 65.46376812 -35 63 C-35.3742218 60.49511719 -35.3742218 60.49511719 -35.37231445 57.296875 C-35.37854324 56.10223633 -35.38477203 54.90759766 -35.39118958 53.67675781 C-35.38197983 52.38092773 -35.37277008 51.08509766 -35.36328125 49.75 C-35.36276276 48.4124349 -35.36328002 47.07486903 -35.36479187 45.73730469 C-35.3647021 42.93282712 -35.35426333 40.12863674 -35.33618164 37.32421875 C-35.31349395 33.72593122 -35.31294971 30.12806348 -35.31969929 26.52972412 C-35.32303774 23.76737728 -35.31641159 21.00512649 -35.30657005 18.24279785 C-35.30083825 16.2696207 -35.30215527 14.29642718 -35.30354309 12.32324219 C-35.29401108 11.12860352 -35.28447906 9.93396484 -35.2746582 8.703125 C-35.27005081 7.64770508 -35.26544342 6.59228516 -35.26069641 5.50488281 C-35 3 -35 3 -33 1 C-30.87109375 0.76953125 -30.87109375 0.76953125 -28.4375 0.8125 C-27.22900391 0.82216797 -27.22900391 0.82216797 -25.99609375 0.83203125 C-24 1 -24 1 -23 2 C-22.63239269 4.32817964 -22.29758419 6.6618385 -22 9 C-21.01 7.88625 -21.01 7.88625 -20 6.75 C-14.90255028 1.66699064 -7.15134006 -2.38378002 0 0 Z " fill="#F7F7F7" transform="translate(585,76)"/>
<path d="M0 0 C0.99 0.33 1.98 0.66 3 1 C0.81877971 6.64551135 -2.08863568 11.68537174 -5.171875 16.88671875 C-8.38223282 22.35393067 -11.36640661 27.9446625 -14.35546875 33.53515625 C-19.0007156 42.16204325 -24.00199916 50.57451638 -29 59 C-32 58 -32 58 -33.421875 55.5234375 C-33.86015625 54.48445313 -34.2984375 53.44546875 -34.75 52.375 C-35.42289063 50.83972656 -35.42289063 50.83972656 -36.109375 49.2734375 C-37.52615205 44.06616043 -36.74280818 40.04899012 -34.1796875 35.38671875 C-33.42562209 34.14493365 -32.65676244 32.91203761 -31.875 31.6875 C-31.4625 31.03160889 -31.05 30.37571777 -30.625 29.69995117 C-29.79663251 28.39003077 -28.96309101 27.08336582 -28.12402344 25.78027344 C-27.1838485 24.29118664 -26.30642778 22.76272293 -25.4453125 21.2265625 C-20.20379176 12.47180623 -11.36200639 7.46518475 -3 2 C-2.01 1.34 -1.02 0.68 0 0 Z " fill="#F2F2F1" transform="translate(165,50)"/>
<path d="M0 0 C2.97 0.495 2.97 0.495 6 1 C6 1.66 6 2.32 6 3 C6.69609375 3.24234375 7.3921875 3.4846875 8.109375 3.734375 C19.94821988 8.91786925 26.87685074 18.06931789 33 29 C33.62132812 30.03253906 34.24265625 31.06507812 34.8828125 32.12890625 C39.63333886 40.248992 39.63333886 40.248992 39 46 C37.6875 49.2109375 37.6875 49.2109375 36 52.375 C35.443125 53.43460938 34.88625 54.49421875 34.3125 55.5859375 C33.879375 56.38257813 33.44625 57.17921875 33 58 C28.97889218 56.65963073 28.62416732 55.02313912 26.62890625 51.33203125 C26.31019058 50.74887146 25.99147491 50.16571167 25.6631012 49.56488037 C24.62049984 47.65219024 23.59139406 45.73259326 22.5625 43.8125 C21.84766491 42.49361314 21.1320016 41.17517485 20.41552734 39.85717773 C18.9664668 37.18903807 17.52236807 34.51829812 16.08154297 31.84570312 C14.19289687 28.34800856 12.27543594 24.86693152 10.34765625 21.390625 C9.79972412 20.39957764 9.25179199 19.40853027 8.68725586 18.38745117 C7.67121487 16.55019375 6.65263268 14.71433858 5.63110352 12.88012695 C3.31487364 8.66150027 1.31848631 4.66016715 0 0 Z " fill="#F2F3F2" transform="translate(57,51)"/>
<path d="M0 0 C0.9075 0.00257812 1.815 0.00515625 2.75 0.0078125 C4.11125 0.00394531 4.11125 0.00394531 5.5 0 C7.75 0.1328125 7.75 0.1328125 8.75 1.1328125 C8.84396057 3.06587748 8.86743517 5.00240088 8.86352539 6.93774414 C8.86344986 8.17895523 8.86337433 9.42016632 8.86329651 10.69898987 C8.85818911 12.0636499 8.8529731 13.42830952 8.84765625 14.79296875 C8.845792 16.18159433 8.84436813 17.57022057 8.84336853 18.95884705 C8.83954387 22.62002365 8.82971403 26.2811608 8.81866455 29.94232178 C8.80844932 33.67573513 8.80387067 37.40915484 8.79882812 41.14257812 C8.78809171 48.47267427 8.77101591 55.80273786 8.75 63.1328125 C6.50487738 64.25537381 5.23543351 64.26695012 2.75 64.2578125 C1.698125 64.26167969 1.698125 64.26167969 0.625 64.265625 C-1.25 64.1328125 -1.25 64.1328125 -3.25 63.1328125 C-3.27312737 55.06629076 -3.29091709 46.99978278 -3.30181217 38.93323612 C-3.30704014 35.18798213 -3.31413622 31.44275074 -3.32543945 27.69750977 C-3.33627141 24.08599563 -3.34227749 20.47450329 -3.34487724 16.86297417 C-3.34673094 15.48220921 -3.35035049 14.1014455 -3.35573006 12.72068977 C-3.36294447 10.79305298 -3.36340809 8.86539443 -3.36352539 6.93774414 C-3.365746 5.83854141 -3.36796661 4.73933868 -3.37025452 3.60682678 C-3.21514673 0.41577089 -3.17550721 0.18744313 0 0 Z " fill="#FAFAFA" transform="translate(593.25,76.8671875)"/>
<path d="M0 0 C3.38677089 2.45000447 4.78698584 3.86392446 5.5625 8 C4.86165197 11.73785618 3.75456634 13.39432914 1 16 C-2.47454134 17.46296477 -3.72080658 17.11275119 -7.25 15.6875 C-10 14 -10 14 -11 12 C-11.57142857 4.91428571 -11.57142857 4.91428571 -9.4375 1.5 C-6.00863886 -0.61006839 -3.95779649 -0.62491523 0 0 Z " fill="#EEEEEE" transform="translate(599,50)"/>
</svg>
