<svg xmlns="http://www.w3.org/2000/svg" xmlns:xlink="http://www.w3.org/1999/xlink" width="500" zoomAndPan="magnify" viewBox="0 0 375 374.999991" height="500" preserveAspectRatio="xMidYMid meet" version="1.0"><defs><clipPath id="6b648315a4"><path d="M 124.84375 146.226562 L 250 146.226562 L 250 271.476562 L 124.84375 271.476562 Z M 124.84375 146.226562 " clip-rule="nonzero"/></clipPath></defs><rect x="-37.5" width="450" fill="#ffffff" y="-37.499999" height="449.999989" fill-opacity="1"/><rect x="-37.5" width="450" fill="#f4f6fc" y="-37.499999" height="449.999989" fill-opacity="1"/><g clip-path="url(#6b648315a4)"><path fill="#7570f5" d="M 188.726562 271.019531 C 182.746094 271.367188 176.664062 270.761719 170.785156 269.238281 C 167.839844 268.480469 164.953125 267.480469 162.148438 266.28125 C 159.339844 265.074219 156.628906 263.640625 154.019531 262.023438 C 148.8125 258.777344 144.078125 254.722656 140.039062 250.039062 C 135.992188 245.359375 132.640625 240.050781 130.152344 234.34375 C 127.652344 228.640625 126.03125 222.535156 125.339844 216.320312 C 125.164062 214.765625 125.0625 213.207031 124.996094 211.644531 C 124.941406 210.082031 124.941406 208.515625 124.996094 206.953125 C 125.011719 206.558594 125.035156 206.167969 125.054688 205.777344 L 125.085938 205.191406 L 125.128906 204.605469 C 125.164062 204.214844 125.1875 203.824219 125.226562 203.433594 L 125.347656 202.265625 C 125.382812 201.875 125.441406 201.488281 125.488281 201.097656 C 125.542969 200.710938 125.589844 200.320312 125.652344 199.933594 L 125.835938 198.773438 L 126.046875 197.613281 C 127.207031 191.445312 129.3125 185.449219 132.257812 179.894531 C 133.726562 177.113281 135.414062 174.453125 137.277344 171.917969 C 138.21875 170.660156 139.195312 169.429688 140.222656 168.234375 C 141.253906 167.046875 142.320312 165.894531 143.429688 164.777344 C 144.542969 163.671875 145.699219 162.601562 146.886719 161.570312 C 148.078125 160.546875 149.308594 159.566406 150.566406 158.628906 C 153.097656 156.761719 155.761719 155.078125 158.539062 153.605469 C 161.320312 152.136719 164.203125 150.867188 167.171875 149.828125 C 168.652344 149.300781 170.15625 148.851562 171.671875 148.4375 C 173.183594 148.019531 174.722656 147.6875 176.261719 147.390625 L 177.417969 147.179688 L 178.582031 146.996094 C 178.96875 146.933594 179.359375 146.886719 179.746094 146.832031 C 180.136719 146.785156 180.523438 146.726562 180.914062 146.6875 L 182.082031 146.566406 C 182.472656 146.53125 182.863281 146.503906 183.253906 146.472656 L 183.839844 146.429688 L 184.425781 146.398438 C 184.816406 146.378906 185.207031 146.351562 185.597656 146.339844 C 186.382812 146.320312 187.164062 146.289062 187.945312 146.296875 C 188.726562 146.289062 189.511719 146.316406 190.292969 146.335938 C 191.855469 146.402344 193.417969 146.503906 194.972656 146.679688 C 198.078125 147.027344 201.160156 147.601562 204.175781 148.40625 C 207.191406 149.214844 210.144531 150.242188 212.996094 151.492188 C 218.707031 153.980469 224.015625 157.335938 228.695312 161.378906 C 233.378906 165.421875 237.433594 170.160156 240.679688 175.367188 C 242.296875 177.972656 243.730469 180.6875 244.933594 183.496094 C 245.542969 184.894531 246.078125 186.324219 246.578125 187.761719 C 247.082031 189.199219 247.503906 190.664062 247.890625 192.132812 C 249.414062 198.011719 250.015625 204.09375 249.667969 210.078125 C 249.316406 204.09375 248.171875 198.210938 246.21875 192.636719 C 245.242188 189.855469 244.078125 187.144531 242.71875 184.542969 C 242.03125 183.25 241.328125 181.964844 240.554688 180.722656 C 239.78125 179.480469 238.980469 178.257812 238.125 177.078125 C 234.714844 172.339844 230.648438 168.113281 226.078125 164.5625 C 221.515625 161.011719 216.457031 158.132812 211.109375 156.042969 C 205.761719 153.953125 200.128906 152.652344 194.4375 152.183594 C 193.011719 152.0625 191.585938 152.007812 190.15625 151.984375 C 188.730469 151.976562 187.300781 152.003906 185.878906 152.089844 C 183.03125 152.269531 180.199219 152.636719 177.414062 153.21875 C 171.84375 154.375 166.453125 156.34375 161.460938 159.054688 C 160.214844 159.734375 158.984375 160.441406 157.789062 161.214844 C 156.597656 161.984375 155.425781 162.785156 154.289062 163.636719 C 153.15625 164.488281 152.042969 165.375 150.96875 166.300781 C 149.898438 167.234375 148.859375 168.203125 147.851562 169.203125 C 146.851562 170.207031 145.882812 171.246094 144.953125 172.320312 C 144.023438 173.390625 143.140625 174.503906 142.285156 175.636719 C 141.433594 176.773438 140.632812 177.945312 139.863281 179.140625 C 139.089844 180.332031 138.382812 181.5625 137.699219 182.808594 C 134.992188 187.800781 133.019531 193.191406 131.863281 198.765625 C 131.285156 201.550781 130.914062 204.382812 130.734375 207.226562 C 130.699219 207.941406 130.65625 208.652344 130.648438 209.367188 C 130.621094 210.078125 130.628906 210.792969 130.625 211.507812 C 130.652344 212.933594 130.707031 214.363281 130.828125 215.785156 C 131.292969 221.480469 132.597656 227.117188 134.6875 232.464844 C 136.777344 237.8125 139.65625 242.871094 143.207031 247.4375 C 146.757812 252.003906 150.984375 256.074219 155.722656 259.480469 C 160.460938 262.890625 165.71875 265.625 171.289062 267.574219 C 176.859375 269.523438 182.746094 270.667969 188.730469 271.015625 Z M 188.726562 271.019531 " fill-opacity="1" fill-rule="nonzero"/></g><path fill="#7570f5" d="M 177.15625 150.757812 C 165.332031 166.628906 158.449219 186.128906 157.695312 205.90625 C 156.9375 225.679688 162.3125 245.648438 172.890625 262.375 C 165.367188 243.875 161.78125 223.628906 163.757812 203.757812 C 165.734375 183.886719 173.425781 164.433594 186.535156 149.371094 C 183.464844 149.738281 180.390625 150.109375 177.15625 150.757812 Z M 177.15625 150.757812 " fill-opacity="1" fill-rule="nonzero"/><path fill="#7570f5" d="M 186.234375 148.316406 C 187.035156 186.652344 187.835938 224.984375 188.636719 263.320312 C 191.636719 225.535156 193.042969 187.621094 192.855469 149.71875 C 190.523438 149.378906 188.1875 149.039062 186.234375 148.316406 Z M 186.234375 148.316406 " fill-opacity="1" fill-rule="nonzero"/><path fill="#7570f5" d="M 195.515625 149.476562 C 207.140625 164.777344 214.222656 183.488281 215.636719 202.652344 C 217.050781 221.8125 212.796875 241.363281 203.542969 258.203125 C 214.90625 245.773438 220.652344 228.867188 221.488281 212.046875 C 222.324219 195.226562 218.542969 178.445312 212.746094 162.632812 C 211.527344 159.3125 210.167969 155.9375 207.75 153.351562 C 205.332031 150.769531 201.609375 149.113281 195.515625 149.476562 Z M 195.515625 149.476562 " fill-opacity="1" fill-rule="nonzero"/><path fill="#7570f5" d="M 128.714844 210.355469 C 169.128906 208.210938 209.703125 209.121094 249.980469 213.082031 C 209.917969 215.765625 169.804688 217.519531 129.691406 219.273438 C 128.574219 216.796875 128.183594 213.992188 128.714844 210.355469 Z M 128.714844 210.355469 " fill-opacity="1" fill-rule="nonzero"/><path fill="#7570f5" d="M 135.929688 178.140625 C 169.082031 167.0625 205.996094 167.59375 238.816406 179.625 C 221.328125 177.59375 203.742188 175.996094 186.144531 176.425781 C 168.546875 176.855469 150.882812 179.351562 134.316406 185.316406 C 135.148438 183.417969 135.980469 181.519531 135.925781 178.140625 Z M 135.929688 178.140625 " fill-opacity="1" fill-rule="nonzero"/><path fill="#7570f5" d="M 131.019531 231.304688 C 144.195312 236.644531 158.441406 238.941406 172.644531 239.589844 C 186.84375 240.238281 201.066406 239.277344 215.25 238.320312 C 211.054688 241.03125 205.851562 241.558594 200.867188 241.90625 C 180.714844 243.304688 160.445312 242.984375 140.351562 240.949219 C 138.648438 240.777344 136.835938 240.546875 135.519531 239.453125 C 133.269531 237.582031 133.175781 233.78125 131.019531 231.304688 Z M 131.019531 231.304688 " fill-opacity="1" fill-rule="nonzero"/></svg>